<?xml version="1.0" standalone="no"?>
<!DOCTYPE svg PUBLIC "-//W3C//DTD SVG 20010904//EN"
 "http://www.w3.org/TR/2001/REC-SVG-20010904/DTD/svg10.dtd">
<svg version="1.0" xmlns="http://www.w3.org/2000/svg"
 width="700.000000pt" height="700.000000pt" viewBox="0 0 700.000000 700.000000"
 preserveAspectRatio="xMidYMid meet">
<metadata>
Created by potrace 1.14, written by Peter Selinger 2001-2017
</metadata>
<g transform="translate(0.000000,700.000000) scale(0.100000,-0.100000)"
fill="#000000" stroke="none">
<path d="M210 5954 c0 -2 717 -956 727 -969 5 -5 164 -217 353 -470 190 -253
349 -465 355 -472 5 -6 42 -54 80 -106 63 -85 74 -96 105 -99 19 -2 214 -2
432 0 l398 2 -148 198 c-81 108 -149 199 -152 202 -3 3 -57 75 -120 160 -63
85 -117 157 -120 160 -3 3 -99 131 -215 285 -115 154 -215 286 -222 293 -7 7
-13 17 -13 20 0 4 -11 19 -24 33 -20 22 -46 61 -46 71 0 2 357 3 793 2 809 -1
852 -3 967 -40 248 -81 446 -281 529 -533 28 -85 36 -139 36 -246 0 -174 -38
-304 -131 -447 -126 -195 -331 -329 -565 -368 -30 -5 -701 -9 -1528 -9 -811
-1 -1476 -3 -1478 -4 -2 -2 32 -51 74 -108 43 -57 145 -196 228 -309 82 -113
153 -209 158 -215 7 -8 199 -270 612 -834 50 -68 113 -153 140 -190 28 -36 99
-133 160 -216 60 -82 113 -154 117 -160 5 -5 105 -140 222 -300 l214 -290 426
0 c234 -1 426 1 426 3 0 2 -21 32 -47 68 -106 143 -156 210 -173 234 -87 115
-425 575 -483 655 -39 55 -76 105 -82 111 -5 6 -67 90 -137 185 -71 96 -211
287 -312 424 -101 138 -183 251 -182 251 0 1 354 4 786 8 920 8 939 8 1050 31
531 108 982 530 1134 1061 31 110 37 141 52 264 24 207 -3 435 -75 645 -31 88
-122 278 -147 306 -8 8 -14 18 -14 22 0 12 -118 162 -171 218 -48 49 -116 111
-176 160 -49 40 -155 105 -243 150 -86 44 -267 111 -330 122 -14 3 -43 8 -65
12 -71 13 -77 14 -134 21 -42 5 -3041 13 -3041 8z"/>
<path d="M2768 2542 c70 -93 135 -180 145 -193 10 -13 79 -105 153 -204 74
-99 300 -399 501 -667 l366 -488 1424 0 c830 0 1422 4 1419 9 -3 5 -59 55
-123 112 -65 57 -120 106 -123 109 -8 8 -97 88 -179 160 -40 36 -88 79 -105
95 -18 17 -63 57 -101 90 -37 33 -82 72 -99 87 l-31 28 -340 0 c-187 0 -578 1
-870 3 l-529 2 -81 106 c-44 59 -217 290 -385 513 l-305 406 -432 0 -432 0
127 -168z"/>
</g>
</svg>
