<?xml version="1.0" standalone="no"?>
<!DOCTYPE svg PUBLIC "-//W3C//DTD SVG 20010904//EN"
 "http://www.w3.org/TR/2001/REC-SVG-20010904/DTD/svg10.dtd">
<svg version="1.0" xmlns="http://www.w3.org/2000/svg"
 width="250.000000pt" height="250.000000pt" viewBox="0 0 250.000000 250.000000"
 preserveAspectRatio="xMidYMid meet">
<metadata>
Created by potrace 1.14, written by Peter Selinger 2001-2017
</metadata>
<g transform="translate(0.000000,250.000000) scale(0.100000,-0.100000)"
fill="#000000" stroke="none">
<path d="M54 2135 c-5 -13 77 -128 324 -455 11 -14 70 -92 132 -175 62 -82
114 -152 116 -154 2 -2 78 -4 170 -4 130 0 168 3 174 13 5 8 5 19 1 25 -44 57
-339 453 -343 460 -5 7 80 10 265 10 258 -1 275 -3 322 -24 104 -46 159 -132
159 -246 -1 -82 -22 -132 -83 -192 -76 -74 -69 -73 -683 -74 -481 0 -547 -2
-552 -16 -4 -10 76 -127 226 -332 225 -307 379 -516 396 -536 4 -5 23 -31 41
-57 l34 -48 168 0 c142 0 168 2 173 16 4 10 -76 127 -234 341 -132 179 -239
327 -238 329 2 1 136 5 299 7 270 4 300 6 360 26 182 60 326 214 374 400 14
56 21 180 12 221 -2 8 -7 33 -12 55 -9 47 -55 145 -92 195 -73 100 -190 178
-325 218 -13 3 -283 8 -601 9 -511 3 -578 2 -583 -12z"/>
<path d="M943 992 c-13 -2 -23 -10 -23 -19 0 -16 11 -33 135 -196 39 -50 77
-102 85 -113 8 -12 68 -92 132 -178 l118 -156 525 0 c480 0 526 1 532 17 4 11
-3 24 -23 41 -16 14 -65 57 -109 97 -44 40 -98 88 -121 107 l-41 34 -306 -1
-307 0 -136 182 c-76 101 -144 183 -153 184 -54 3 -290 3 -308 1z"/>
</g>
</svg>
